<?xml version="1.0" encoding="utf-8"?>
<svg viewBox="0 0 500 500" xmlns="http://www.w3.org/2000/svg">
  <path d="M 495.698 248.541 C 495.698 384.702 385.318 495.082 249.157 495.082 C 112.996 495.082 2.616 384.702 2.616 248.541 C 2.616 112.38 112.996 2 249.157 2 C 385.318 2 495.698 112.38 495.698 248.541 Z M 85.53 286.464 C 82.457 287.737 79.16 288.374 75.64 288.374 C 72.127 288.374 68.783 287.617 65.61 286.104 C 62.437 284.591 59.603 282.197 57.11 278.924 C 54.623 275.651 52.67 271.427 51.25 266.254 C 49.837 261.074 49.08 254.824 48.98 247.504 C 49.08 239.984 49.863 233.634 51.33 228.454 C 52.79 223.281 54.817 219.057 57.41 215.784 C 59.997 212.517 62.927 210.201 66.2 208.834 C 69.467 207.467 72.907 206.784 76.52 206.784 C 79.747 206.784 82.847 207.417 85.82 208.684 C 88.8 209.951 91.51 212.001 93.95 214.834 L 106.11 203.994 C 102.11 200.087 97.57 197.157 92.49 195.204 C 87.41 193.251 81.94 192.274 76.08 192.274 C 69.733 192.274 63.827 193.471 58.36 195.864 C 52.893 198.257 48.133 201.751 44.08 206.344 C 40.027 210.931 36.85 216.667 34.55 223.554 C 32.257 230.434 31.11 238.417 31.11 247.504 C 31.11 256.584 32.257 264.591 34.55 271.524 C 36.85 278.457 40.027 284.221 44.08 288.814 C 48.133 293.401 52.87 296.867 58.29 299.214 C 63.71 301.554 69.64 302.724 76.08 302.724 C 81.94 302.724 87.41 301.747 92.49 299.794 C 97.57 297.841 102.11 294.911 106.11 291.004 L 93.95 280.314 C 91.417 283.147 88.61 285.197 85.53 286.464 Z M 149.379 279.584 L 189.959 279.584 L 197.719 301.994 L 215.879 301.994 L 178.379 194.184 L 160.949 194.184 L 123.159 301.994 L 141.469 301.994 L 149.379 279.584 Z M 185.709 267.714 L 153.479 267.714 L 169.739 221.134 L 185.709 267.714 Z M 234.829 301.994 L 302.359 301.994 L 302.359 288.664 L 252.699 288.664 L 252.699 194.034 L 234.829 194.034 L 234.829 301.994 Z M 316.474 301.994 L 384.004 301.994 L 384.004 288.664 L 334.344 288.664 L 334.344 194.034 L 316.474 194.034 L 316.474 301.994 Z M 421.738 242.222 L 420.128 242.222 L 401.528 193.882 L 381.458 193.882 L 411.928 259.362 L 411.928 301.842 L 429.798 301.842 L 429.798 257.892 L 461.878 193.882 L 441.808 193.882 L 421.738 242.222 Z" style=""/>
</svg>