<?xml version="1.0" encoding="utf-8"?>
<svg viewBox="0 0 500 500" xmlns="http://www.w3.org/2000/svg">
  <path d="M 491.292 250 C 491.292 383.262 383.262 491.292 250 491.292 C 116.738 491.292 8.708 383.262 8.708 250 C 8.708 116.738 116.738 8.708 250 8.708 C 383.262 8.708 491.292 116.738 491.292 250 Z M 30.066 220.788 C 23.306 227.508 19.926 237.438 19.926 250.578 C 19.926 263.718 23.306 273.648 30.066 280.368 C 36.819 287.088 46.766 290.448 59.906 290.448 C 71.706 290.448 80.836 287.648 87.296 282.048 C 93.756 276.448 96.986 268.385 96.986 257.858 L 74.136 257.858 C 74.136 262.338 72.903 265.811 70.436 268.278 C 67.976 270.738 64.356 271.968 59.576 271.968 C 54.723 271.968 51.119 270.381 48.766 267.208 C 46.413 264.035 45.236 259.688 45.236 254.168 L 45.236 246.998 C 45.236 241.398 46.413 237.028 48.766 233.888 C 51.119 230.755 54.796 229.188 59.796 229.188 C 64.129 229.188 67.473 230.495 69.826 233.108 C 72.173 235.721 73.346 239.268 73.346 243.748 L 96.986 243.748 C 96.986 233.148 93.663 224.991 87.016 219.278 C 80.369 213.565 71.333 210.708 59.906 210.708 C 46.766 210.708 36.819 214.068 30.066 220.788 Z M 177.14 212.048 L 148.35 212.048 L 120.24 289.108 L 145.55 289.108 L 148.8 278.248 L 175.79 278.248 L 179.04 289.108 L 205.25 289.108 Z M 162.58 233.558 L 170.64 260.998 L 153.95 260.998 L 162.13 233.558 Z M 295.934 289.108 L 295.934 269.398 L 256.394 269.398 L 256.394 212.048 L 231.644 212.048 L 231.644 289.108 Z M 387.737 289.108 L 387.737 269.398 L 348.197 269.398 L 348.197 212.048 L 323.447 212.048 L 323.447 289.108 Z M 484.575 212.048 L 457.585 212.048 L 442.795 237.698 L 442.355 237.698 L 427.565 212.048 L 399.115 212.048 L 429.695 259.208 L 429.695 289.108 L 454.445 289.108 L 454.445 259.208 Z" style=""/>
</svg>